<?xml version="1.0" encoding="UTF-8"?><svg id="Layer_2" xmlns="http://www.w3.org/2000/svg" viewBox="0 0 339.41 339.41"><defs><style>.cls-1{fill:#fff;}.cls-2{fill:none;stroke:#fff;stroke-linejoin:round;stroke-width:20px;}</style></defs><g id="Layer_1-2"><path class="cls-1" d="M169.71,16c41.06,0,79.66,15.99,108.69,45.02s45.02,67.63,45.02,108.69-15.99,79.66-45.02,108.69-67.63,45.02-108.69,45.02-79.66-15.99-108.69-45.02S16,210.76,16,169.71,31.99,90.05,61.02,61.02,128.65,16,169.71,16m0-16C75.98,0,0,75.98,0,169.71s75.98,169.71,169.71,169.71,169.71-75.98,169.71-169.71S263.43,0,169.71,0h0Z"/></g><g id="Layer_3"><path class="cls-2" d="M161.71,275.71L69.41,114.46l54.56-32.61s31.18-20.36,56.21,21.51c23.82,39.84-5.11,57.1-7.98,58.68"/><line class="cls-2" x1="115.03" y1="121.63" x2="208.71" y2="280.71"/><polyline class="cls-2" points="226.71 87.71 208.71 202.71 277.71 214.71"/></g></svg>