<?xml version="1.0" encoding="UTF-8"?><svg id="Layer_2" xmlns="http://www.w3.org/2000/svg" viewBox="0 0 339.96 339.77"><defs><style>.cls-1{fill:#876aff;}.cls-2{fill:none;stroke:#000;stroke-linejoin:round;stroke-width:20px;}</style></defs><g id="Layer_5"><g><circle class="cls-1" cx="169.71" cy="169.71" r="161.71"/><path d="M169.71,16c41.06,0,79.66,15.99,108.69,45.02s45.02,67.63,45.02,108.69-15.99,79.66-45.02,108.69-67.63,45.02-108.69,45.02-79.66-15.99-108.69-45.02S16,210.76,16,169.71,31.99,90.05,61.02,61.02,128.65,16,169.71,16m0-16C75.98,0,0,75.98,0,169.71s75.98,169.71,169.71,169.71,169.71-75.98,169.71-169.71S263.43,0,169.71,0h0Z"/></g></g><g id="Layer_1-2"><path d="M170.26,16.36c41.06,0,79.66,15.99,108.69,45.02s45.02,67.63,45.02,108.69-15.99,79.66-45.02,108.69-67.63,45.02-108.69,45.02-79.66-15.99-108.69-45.02S16.55,211.12,16.55,170.07s15.99-79.66,45.02-108.69S129.2,16.36,170.26,16.36m0-16C76.53,.36,.55,76.34,.55,170.07s75.98,169.71,169.71,169.71,169.71-75.98,169.71-169.71S263.98,.36,170.26,.36h0Z"/></g><g id="Layer_3"><path class="cls-2" d="M162.26,276.07L69.96,114.82l54.56-32.61s31.18-20.36,56.21,21.51c23.82,39.84-5.11,57.1-7.98,58.68"/><line class="cls-2" x1="115.59" y1="121.99" x2="209.26" y2="281.07"/><polyline class="cls-2" points="227.26 88.07 209.26 203.07 278.26 215.07"/></g></svg>