<?xml version="1.0" encoding="UTF-8"?><svg id="Layer_2" xmlns="http://www.w3.org/2000/svg" viewBox="0 0 400 400"><defs><style>.cls-1{fill:#fff;}.cls-2{fill:none;stroke:#fff;stroke-miterlimit:10;stroke-width:20px;}</style></defs><g id="Layer_1-2"><path class="cls-1" d="M200,10c25.65,0,50.54,5.02,73.95,14.93,22.62,9.57,42.94,23.27,60.4,40.72,17.45,17.45,31.15,37.77,40.72,60.4,9.9,23.42,14.93,48.3,14.93,73.95s-5.02,50.54-14.93,73.95c-9.57,22.62-23.27,42.94-40.72,60.4-17.45,17.45-37.77,31.15-60.4,40.72-23.42,9.9-48.3,14.93-73.95,14.93s-50.54-5.02-73.95-14.93c-22.62-9.57-42.94-23.27-60.4-40.72-17.45-17.45-31.15-37.77-40.72-60.4-9.9-23.42-14.93-48.3-14.93-73.95s5.02-50.54,14.93-73.95c9.57-22.62,23.27-42.94,40.72-60.4,17.45-17.45,37.77-31.15,60.4-40.72,23.42-9.9,48.3-14.93,73.95-14.93m0-10C89.54,0,0,89.54,0,200s89.54,200,200,200,200-89.54,200-200S310.46,0,200,0h0Z"/></g><g id="Layer_2-2"><path class="cls-1" d="M202,24c47.01,0,91.21,18.31,124.45,51.55,33.24,33.24,51.55,77.44,51.55,124.45s-18.31,91.21-51.55,124.45c-33.24,33.24-77.44,51.55-124.45,51.55s-91.21-18.31-124.45-51.55c-33.24-33.24-51.55-77.44-51.55-124.45s18.31-91.21,51.55-124.45c33.24-33.24,77.44-51.55,124.45-51.55m0-6C101.48,18,20,99.48,20,200s81.48,182,182,182,182-81.48,182-182S302.52,18,202,18h0Z"/></g><g id="Layer_3"><path class="cls-1" d="M194.11,326.31c.17-64.94,0-167.87,.13-231.82-.37-6.91,3.52-13.79,9.82-16.77,2.41-1.2,5.12-1.78,7.81-1.79,10.36,0,36.2,.02,46.22,.03,1.76,0,4.98,0,6.71,0,29.31-.13,54.59,23.89,55.41,53.28,.15,2.29,.09,5.75,.1,8.06-.03,3.83,0,11.56-.02,15.39-.03,16.39-9.65,32.27-24.26,39.7-7.06,3.72-15.1,5.3-23.02,5.12-1.31,.03-4.49-.03-5.75,0-1.14,.08-2.23,.09-3.33,.42-5.84,1.32-10.19,6.99-10.16,12.98h-19.43c.05-7.21,2.43-14.54,6.97-20.21,6.53-8.52,17.19-13.16,27.87-12.66,1.36-.02,4.65,0,5.99,0,11.81,0,22.43-8.43,24.94-19.96,.9-3.35,.59-9.6,.65-13.11,0-2.55,0-9.03,0-11.5,.73-17.96-11.51-33.77-29.21-37.2l-2.97-.46c-.59-.03-3.25-.16-3.77-.2-13.32,0-39.98,.02-52.87,.03,1.11-.06,2.05-1.05,2.06-2.17,0-.02,0-.08,0,.05v2.87c-.07,27.68,.11,79.13,.06,107.29l.07,122.61h-20Z"/><path class="cls-2" d="M108,76h0c.01,7.24,3,14.17,8.26,19.19l75.82,72.21c6.05,5.77,9.49,13.74,9.5,22.07v1.87c.02,7.44-2.6,14.63-7.39,20.32l-76.69,91.02c-5.5,6.52-8.5,14.78-8.49,23.31h0"/></g></svg>